<?xml version="1.0" encoding="UTF-8" standalone="no"?>
<!-- Created with Inkscape (http://www.inkscape.org/) -->

<svg
   width="36.208221mm"
   height="10.715625mm"
   viewBox="0 0 36.208221 10.715625"
   version="1.1"
   id="svg1"
   xml:space="preserve"
   xmlns:inkscape="http://www.inkscape.org/namespaces/inkscape"
   xmlns:sodipodi="http://sodipodi.sourceforge.net/DTD/sodipodi-0.dtd"
   xmlns:xlink="http://www.w3.org/1999/xlink"
   xmlns="http://www.w3.org/2000/svg"
   xmlns:svg="http://www.w3.org/2000/svg"><sodipodi:namedview
     id="namedview1"
     pagecolor="#ffffff"
     bordercolor="#000000"
     borderopacity="0.25"
     inkscape:showpageshadow="2"
     inkscape:pageopacity="0.0"
     inkscape:pagecheckerboard="0"
     inkscape:deskcolor="#d1d1d1"
     inkscape:document-units="mm" /><defs
     id="defs1"><g
       id="Layer0_0_FILL"><path
         fill="#e15e36"
         stroke="none"
         d="m 30,49.05 v -0.1 q 0,-0.8 -0.65,-1.4 Q 28.8,47 27.95,47 q -0.8,0 -1.4,0.55 -0.55,0.6 -0.55,1.4 v 0.1 q 0,0.8 0.55,1.4 0.6,0.55 1.4,0.55 0.85,0 1.4,-0.55 0.65,-0.6 0.65,-1.4 z"
         id="path2" /></g><g
       id="Layer0_1_FILL"><path
         fill="#e15e36"
         stroke="none"
         d="m 57,49.05 v -0.1 q 0,-0.8 -0.55,-1.4 Q 55.85,47 55.05,47 54.2,47 53.65,47.55 53,48.15 53,48.95 v 0.1 q 0,0.8 0.65,1.4 0.55,0.55 1.4,0.55 0.8,0 1.4,-0.55 0.55,-0.6 0.55,-1.4 z"
         id="path3" /></g><g
       id="Layer0_2_FILL"><path
         fill="#e15e36"
         stroke="none"
         d="M 58.45,-21.45 51,-14 46.55,-18.45 q -0.45,-0.45 -1.05,-0.45 -0.6,0 -1.05,0.45 Q 44,-18 44,-17.4 q 0,0.6 0.45,1.05 l 5.5,5.5 q 0.45,0.45 1.05,0.45 0.6,0 1.05,-0.45 l 8.5,-8.5 Q 61,-19.8 61,-20.4 61,-21 60.55,-21.45 60.1,-21.9 59.5,-21.9 q -0.6,0 -1.05,0.45 z"
         id="path4" /></g><g
       id="Layer0_3_FILL"><path
         fill="#e15e36"
         stroke="none"
         d="M 63,23.45 Q 63,21.6 61.7,20.3 60.4,19 58.6,19 H 23.4 Q 21.6,19 20.3,20.3 19,21.6 19,23.45 V 44.6 q 0,1.8 1.3,3.1 1.3,1.3 3.1,1.3 h 35.2 q 1.8,0 3.1,-1.3 1.3,-1.3 1.3,-3.1 z"
         id="path5" /></g><g
       id="Layer0_4_FILL"><path
         fill="#ffffff"
         stroke="none"
         d="M 55.15,22.95 Q 54.3,22 53.1,21.65 52.65,21.5 52.2,21.45 51.7,21.4 51.5,21.35 48.4,21.15 43.35,21.05 L 38.95,21 q -1.9,0 -4.4,0.05 -5.05,0.1 -8.2,0.3 -0.4,0.05 -0.65,0.1 -0.5,0.05 -0.9,0.2 -1.15,0.35 -2.05,1.3 -0.65,0.7 -1.1,2.25 -0.25,0.75 -0.3,1.4 l -0.2,1.85 q -0.2,2.25 -0.2,4.15 v 2.8 q 0,1.9 0.2,4.1 0.1,1.15 0.2,1.9 l 0.05,0.4 q 0.1,0.5 0.25,1 0.45,1.55 1.1,2.25 0.85,0.95 2.2,1.3 0.7,0.2 1.75,0.3 1.8,0.2 7.2,0.3 2.7,0.05 5.05,0.05 l 4.4,-0.05 q 5.05,-0.1 8.15,-0.3 0.2,-0.05 0.7,-0.1 0.45,-0.05 0.9,-0.2 1.2,-0.35 2.05,-1.3 0.7,-0.7 1.15,-2.25 0.1,-0.5 0.25,-1 l 0.05,-0.4 q 0.1,-0.75 0.2,-1.9 0.15,-2.2 0.15,-4.1 v -2.8 q 0,-1.9 -0.15,-4.15 L 56.6,26.6 q -0.1,-0.65 -0.3,-1.4 -0.45,-1.55 -1.15,-2.25 z"
         id="path6" /></g><g
       id="Layer0_5_FILL"><path
         fill="#e15e36"
         stroke="none"
         d="M 33.3,26.65 Q 32.9,25.55 32,25 q -0.85,-0.6 -2.25,-0.6 -1.45,0 -2.35,0.65 -0.95,0.6 -1.4,1.75 -0.45,1.15 -0.45,2.6 0,2.3 0.95,3.5 0.95,1.25 3.05,1.25 1.45,0 2.35,-0.6 0.95,-0.65 1.4,-1.75 0.45,-1.1 0.45,-2.6 0,-1.5 -0.45,-2.55 M 31.05,26.2 q 0.5,0.5 0.7,1.35 0.2,0.85 0.15,1.8 0.05,1.05 -0.15,1.8 -0.25,0.8 -0.7,1.25 -0.5,0.45 -1.3,0.45 -0.95,0 -1.5,-0.5 -0.5,-0.5 -0.7,-1.3 -0.2,-0.8 -0.15,-1.8 0,-1 0.2,-1.8 0.2,-0.8 0.65,-1.3 0.5,-0.45 1.3,-0.45 0.95,0 1.5,0.5 M 43,26.95 q -0.65,-0.05 -1.25,0.3 -0.6,0.3 -1,1 -0.2,-0.6 -0.6,-0.95 -0.4,-0.35 -1.1,-0.35 -0.75,-0.05 -1.4,0.35 -0.6,0.4 -1,1.2 Q 36.6,28 36.4,27.7 36.25,27.35 36.1,27.15 L 36,27 34.7,27.5 q 0.05,0 0.2,0.3 0.15,0.25 0.35,0.95 0.15,0.65 0.15,1.75 v 3.55 H 37 v -3.5 q 0,-0.75 0.25,-1.25 0.2,-0.55 0.55,-0.85 0.35,-0.25 0.75,-0.25 0.45,0 0.65,0.3 0.2,0.35 0.15,0.95 v 4.6 h 1.6 V 30.3 q 0,-0.65 0.25,-1.1 0.25,-0.5 0.6,-0.75 0.35,-0.25 0.7,-0.25 0.45,0 0.65,0.3 0.2,0.35 0.2,0.95 v 4.6 h 1.6 v -4.7 q 0,-1.1 -0.45,-1.75 -0.4,-0.65 -1.5,-0.65 m 8.55,3.2 Q 52,29.55 52,28.9 q 0,-0.6 -0.2,-1.05 -0.25,-0.45 -0.75,-0.7 -0.55,-0.25 -1.4,-0.3 -0.95,0 -1.7,0.45 -0.8,0.45 -1.2,1.3 -0.45,0.85 -0.5,2.15 0,1 0.35,1.8 0.3,0.75 0.95,1.2 0.7,0.4 1.75,0.4 0.75,0 1.35,-0.15 0.6,-0.15 0.95,-0.3 l 0.35,-0.15 -0.4,-1.05 q 0,0.05 -0.35,0.15 -0.3,0.1 -0.75,0.25 Q 49.95,33 49.55,33 49,33 48.65,32.8 48.35,32.6 48.2,32.25 48,31.85 48,31.4 q 1.2,0 2.15,-0.35 0.9,-0.35 1.4,-0.9 m -1.4,-1.95 q 0.25,0.25 0.25,0.7 0.05,0.3 -0.25,0.65 -0.25,0.35 -0.75,0.6 -0.55,0.2 -1.45,0.25 0,-0.6 0.15,-1.15 0.15,-0.55 0.5,-0.9 0.35,-0.35 0.95,-0.4 0.4,0.05 0.6,0.25 z"
         id="path7" /></g><g
       id="Layer0_5_MEMBER_0_FILL"><path
         fill="#42a77f"
         stroke="none"
         d="M 38.05,37 H 32.1 v 1.55 h 2 v 4.75 h 1.95 v -4.75 h 2 V 37 m 7.45,0 h -2 L 42.1,41.5 40.7,37 h -2.05 l 2.4,6.3 h 2.1 z"
         id="path8" /></g><g
       id="Layer0_6_FILL"><path
         fill="#ffffff"
         stroke="none"
         d="m 293.5,145 q 3.5,-3.5 3.5,-8.5 0,-5 -3.5,-8.5 -3.5,-3.5 -8.5,-3.5 -5,0 -8.5,3.5 -3.5,3.5 -3.5,8.5 0,5 3.5,8.5 3.5,3.5 8.5,3.5 5,0 8.5,-3.5 z"
         id="path9" /></g><g
       id="Layer0_7_FILL"><path
         fill="#ffffff"
         stroke="none"
         d="m 276.5,182 q -3.5,3.5 -3.5,8.5 0,5 3.5,8.5 3.5,3.5 8.5,3.5 5,0 8.5,-3.5 3.5,-3.5 3.5,-8.5 0,-5 -3.5,-8.5 -3.5,-3.5 -8.5,-3.5 -5,0 -8.5,3.5 z"
         id="path10" /></g><g
       id="Layer0_8_FILL"><path
         fill="#e15e36"
         stroke="none"
         d="M 85.75,26.25 Q 84,25.2 81.3,25.15 q -2.8,0.05 -4.6,1.2 -1.85,1.15 -2.75,3.25 -0.9,2.1 -0.9,4.8 0,4.2 1.9,6.45 1.9,2.3 6,2.3 2.75,0 4.6,-1.15 1.8,-1.15 2.7,-3.2 0.9,-2 0.9,-4.75 0,-2.75 -0.85,-4.75 -0.8,-2 -2.55,-3.05 m -1.55,4.9 q 0.3,1.4 0.3,3.15 0,2.8 -0.75,4.3 -0.75,1.5 -2.45,1.5 -1.4,0 -2.2,-0.75 -0.8,-0.75 -1.1,-2.1 -0.3,-1.35 -0.3,-3.1 0,-2.85 0.75,-4.4 0.8,-1.5 2.45,-1.55 1.4,0 2.2,0.8 0.8,0.8 1.1,2.15 m 15.5,-1.4 q -1.35,0 -2.45,0.6 -1.1,0.6 -1.7,1.8 -0.2,-0.8 -0.5,-1.3 -0.25,-0.55 -0.5,-0.8 l -0.2,-0.3 -3.3,1.05 0.35,0.5 q 0.35,0.5 0.7,1.7 0.35,1.2 0.35,3.25 V 43 h 4.15 v -6.75 q 0,-1.55 0.5,-2.45 0.5,-0.95 1.2,-0.95 0.55,0 0.7,0.55 0.15,0.55 0.15,1.5 V 43 h 4.15 v -6.85 q 0,-1.5 0.55,-2.4 0.5,-0.9 1.15,-0.9 0.5,0 0.7,0.55 0.15,0.55 0.15,1.5 V 43 h 4.1 V 34.3 Q 110,32.2 109.2,31 q -0.8,-1.2 -2.8,-1.25 -1.1,0 -2.05,0.45 -0.95,0.4 -1.6,1.3 -0.45,-0.85 -1.15,-1.3 -0.75,-0.45 -1.9,-0.45 m 23.85,1.85 q -0.45,-0.9 -1.45,-1.4 -1.05,-0.5 -2.65,-0.5 -1.9,0 -3.35,0.8 -1.5,0.85 -2.35,2.4 -0.9,1.6 -0.9,3.95 0,1.9 0.6,3.35 0.6,1.45 1.9,2.25 1.3,0.8 3.45,0.8 1.35,-0.05 2.55,-0.3 1.15,-0.3 1.85,-0.55 0.7,-0.3 0.7,-0.35 l -0.8,-2.7 q 0,0.05 -0.6,0.25 -0.6,0.2 -1.45,0.4 -0.85,0.2 -1.65,0.2 -0.95,0 -1.45,-0.5 -0.5,-0.45 -0.65,-1.25 2.05,-0.15 3.55,-0.85 1.5,-0.65 2.35,-1.7 0.8,-1 0.8,-2.3 0,-1.1 -0.45,-2 m -3.9,1.35 q 0.25,0.25 0.25,0.75 0.05,0.45 -0.25,0.9 -0.3,0.5 -0.9,0.85 -0.65,0.35 -1.65,0.4 0,-0.8 0.2,-1.5 0.2,-0.75 0.6,-1.25 0.35,-0.45 1.05,-0.45 0.4,0 0.7,0.3 z"
         id="path11" /><path
         fill="#42a77f"
         stroke="none"
         d="m 146.3,43 h 4.25 l 5.3,-13 H 151 l -2.5,8.25 -2.4,-8.25 h -4.95 l 5.15,13 M 131,40.5 q 0,-1.05 -0.7,-1.8 -0.75,-0.7 -1.8,-0.7 -1,0 -1.75,0.7 -0.75,0.75 -0.75,1.8 0,1 0.75,1.75 0.75,0.75 1.75,0.75 1.05,0 1.8,-0.75 0.7,-0.75 0.7,-1.75 m 2.45,-13.15 -0.45,2.7 h -2.15 v 3 h 2.05 v 6.5 q 0,1.95 1.1,2.75 1.1,0.8 3.05,0.8 1.35,0 2.25,-0.25 0.95,-0.2 1.45,-0.35 l -0.7,-2.8 -0.3,0.1 q -0.3,0.05 -0.7,0.15 Q 138.6,40 138.2,40 137.6,40 137.3,39.7 137,39.45 137,38.85 v -5.8 h 2.6 l 0.45,-3 H 137 V 26.6 Z"
         id="path12" /></g></defs><g
     inkscape:label="Capa 1"
     inkscape:groupmode="layer"
     id="layer1"
     transform="translate(-86.922587,-143.14219)"><g
       id="g13"
       transform="matrix(0.26458333,0,0,0.26458333,81.895498,140.36407)"><use
         xlink:href="#Layer0_0_FILL"
         id="use13" /></g><g
       id="g14"
       transform="matrix(0.26458333,0,0,0.26458333,81.895498,140.36407)"><use
         xlink:href="#Layer0_1_FILL"
         id="use14" /></g><g
       transform="matrix(0.26458333,0,0,0.26458333,79.117373,148.93657)"
       id="g15"><use
         xlink:href="#Layer0_2_FILL"
         id="use15" /></g><g
       id="g16"
       transform="matrix(0.26458333,0,0,0.26458333,81.895498,140.36407)"><use
         xlink:href="#Layer0_3_FILL"
         id="use16" /></g><g
       transform="matrix(0.26458333,0,0,0.26458333,81.908727,140.36407)"
       id="g17"><use
         xlink:href="#Layer0_4_FILL"
         id="use17" /></g><g
       id="g18"
       transform="matrix(0.26458333,0,0,0.26458333,81.895498,140.36407)"><use
         xlink:href="#Layer0_5_FILL"
         id="use18" /></g><g
       transform="matrix(0.29420442,0,0,0.29398238,80.823935,139.27928)"
       id="g19"><use
         xlink:href="#Layer0_5_MEMBER_0_FILL"
         id="use19" /></g><g
       transform="matrix(0.04381596,0,0,0.04388056,85.282164,142.30876)"
       id="g20"><use
         xlink:href="#Layer0_6_FILL"
         id="use20" /></g><g
       transform="matrix(0.04381596,0,0,0.04443769,85.282164,141.95157)"
       id="g21"><use
         xlink:href="#Layer0_7_FILL"
         id="use21" /></g><g
       id="g22"
       transform="matrix(0.26458333,0,0,0.26458333,81.895498,140.36407)"><use
         xlink:href="#Layer0_8_FILL"
         id="use22" /></g></g></svg>
